<?xml version="1.0" standalone="no"?>
<!-- Creator: fig2dev Version 3.2.7a -->
<!-- Magnification: 1 -->
<svg	xmlns="http://www.w3.org/2000/svg"
	xmlns:xlink="http://www.w3.org/1999/xlink"
	width="721pt" height="586pt"
	viewBox="599 -301 12002 9752">
<g fill="none">
<!-- Line -->
<rect x="600" y="-300" width="12000" height="9750" fill="#ffffff"/>
<!-- Ellipse -->
<ellipse cx="11100" cy="6600" rx="900" ry="450" fill="#87cfff"
	stroke="#000000" stroke-width="8px"/>
<!-- Ellipse -->
<ellipse cx="10350" cy="8550" rx="900" ry="450" fill="#87cfff"
	stroke="#000000" stroke-width="8px"/>
<!-- Ellipse -->
<ellipse cx="2100" cy="3750" rx="900" ry="450" fill="#87cfff"
	stroke="#000000" stroke-width="8px"/>
<!-- Ellipse -->
<ellipse cx="2100" cy="2400" rx="900" ry="450" fill="#87cfff"
	stroke="#000000" stroke-width="8px"/>
<!-- Ellipse -->
<ellipse cx="11100" cy="825" rx="900" ry="450" fill="#87cfff"
	stroke="#000000" stroke-width="8px"/>
<!-- Ellipse -->
<ellipse cx="11100" cy="5250" rx="900" ry="450" fill="#87cfff"
	stroke="#000000" stroke-width="8px"/>
<!-- Line -->
<rect x="3600" y="5400" width="2400" height="1050" fill="#ffbfbf"
	stroke="#000000" stroke-width="8px"/>
<!-- Line -->
<rect x="7200" y="5400" width="2400" height="1050" fill="#ffbfbf"
	stroke="#000000" stroke-width="8px"/>
<!-- Line -->
<rect x="6450" y="8025" width="2400" height="1050" fill="#ffbfbf"
	stroke="#000000" stroke-width="8px"/>
<!-- Line -->
<rect x="3600" y="2550" width="2400" height="1050" fill="#ffbfbf"
	stroke="#000000" stroke-width="8px"/>
<!-- Line -->
<rect x="7200" y="300" width="2400" height="1050" fill="#ffbfbf"
	stroke="#000000" stroke-width="8px"/>
<!-- Line -->
<rect x="7200" y="2550" width="2400" height="1050" fill="#ffbfbf"
	stroke="#000000" stroke-width="8px"/>
<!-- Line -->
<defs>
<clipPath id="cp0">
	<path clip-rule="evenodd" d="M 599,-301 H 12601 V 9451 H 599 z
		M 8460,5208 8340,5208 8390,5411 8411,5411z"/>
</clipPath>
</defs>
<polyline points=" 8400,3600 8400,5400" clip-path="url(#cp0)"
	stroke="#000000" stroke-width="15px"/>
<!-- Forward arrow to point 8400,5400 -->
<polygon points=" 8340,5208 8400,5388 8460,5208 8340,5208"
	stroke="#000000" stroke-width="8px" stroke-miterlimit="8" fill="#000000"/>
<!-- Line -->
<defs>
<clipPath id="cp1">
	<path clip-rule="evenodd" d="M 599,-301 H 12601 V 9451 H 599 z
		M 4860,5208 4740,5208 4790,5411 4811,5411z"/>
</clipPath>
</defs>
<polyline points=" 4800,3600 4800,5400" clip-path="url(#cp1)"
	stroke="#000000" stroke-width="15px"/>
<!-- Forward arrow to point 4800,5400 -->
<polygon points=" 4740,5208 4800,5388 4860,5208 4740,5208"
	stroke="#000000" stroke-width="8px" stroke-miterlimit="8" fill="#000000"/>
<!-- Line -->
<defs>
<clipPath id="cp2">
	<path clip-rule="evenodd" d="M 599,-301 H 12601 V 9451 H 599 z
		M 6192,5985 6192,5865 5990,5915 5990,5936z"/>
</clipPath>
</defs>
<polyline points=" 7200,5925 6000,5925" clip-path="url(#cp2)"
	stroke="#000000" stroke-width="15px"/>
<!-- Forward arrow to point 6000,5925 -->
<polygon points=" 6192,5865 6012,5925 6192,5985 6192,5865"
	stroke="#000000" stroke-width="8px" stroke-miterlimit="8" fill="#000000"/>
<!-- Line -->
<defs>
<clipPath id="cp3">
	<path clip-rule="evenodd" d="M 599,-301 H 12601 V 9451 H 599 z
		M 10082,6437 10010,6533 10202,6615 10215,6598z"/>
</clipPath>
</defs>
<polyline points=" 9600,6150 10200,6600" clip-path="url(#cp3)"
	stroke="#000000" stroke-width="15px" stroke-dasharray="40 40"/>
<!-- Forward arrow to point 10200,6600 -->
<polygon points=" 10010,6533 10190,6593 10082,6437 10010,6533"
	stroke="#000000" stroke-width="8px" stroke-miterlimit="8" fill="#000000"/>
<!-- Line -->
<defs>
<clipPath id="cp4">
	<path clip-rule="evenodd" d="M 599,-301 H 12601 V 9451 H 599 z
		M 10010,5317 10082,5413 10215,5252 10202,5235z"/>
</clipPath>
</defs>
<polyline points=" 9600,5700 10200,5250" clip-path="url(#cp4)"
	stroke="#000000" stroke-width="15px" stroke-dasharray="40 40"/>
<!-- Forward arrow to point 10200,5250 -->
<polygon points=" 10082,5413 10190,5257 10010,5317 10082,5413"
	stroke="#000000" stroke-width="8px" stroke-miterlimit="8" fill="#000000"/>
<!-- Line -->
<polyline points=" 900,7500 12300,7500"
	stroke="#ff0000" stroke-width="30px"/>
<!-- Line -->
<defs>
<clipPath id="cp5">
	<path clip-rule="evenodd" d="M 599,-301 H 12601 V 9451 H 599 z
		M 2958,8040 2958,8160 3161,8111 3161,8090z"/>
</clipPath>
</defs>
<polyline points=" 1950,8100 3150,8100" clip-path="url(#cp5)"
	stroke="#000000" stroke-width="15px"/>
<!-- Forward arrow to point 3150,8100 -->
<polygon points=" 2958,8160 3138,8100 2958,8040 2958,8160"
	stroke="#000000" stroke-width="8px" stroke-miterlimit="8" fill="#000000"/>
<!-- Line -->
<defs>
<clipPath id="cp6">
	<path clip-rule="evenodd" d="M 599,-301 H 12601 V 9451 H 599 z
		M 2958,8940 2958,9060 3161,9011 3161,8990z"/>
</clipPath>
</defs>
<polyline points=" 1950,9000 3150,9000" clip-path="url(#cp6)"
	stroke="#000000" stroke-width="15px" stroke-dasharray="40 40"/>
<!-- Forward arrow to point 3150,9000 -->
<polygon points=" 2958,9060 3138,9000 2958,8940 2958,9060"
	stroke="#000000" stroke-width="8px" stroke-miterlimit="8" fill="#000000"/>
<!-- Line -->
<defs>
<clipPath id="cp7">
	<path clip-rule="evenodd" d="M 599,-301 H 12601 V 9451 H 599 z
		M 8460,2358 8340,2358 8390,2561 8411,2561z"/>
</clipPath>
</defs>
<polyline points=" 8400,1350 8400,2550" clip-path="url(#cp7)"
	stroke="#000000" stroke-width="15px"/>
<!-- Forward arrow to point 8400,2550 -->
<polygon points=" 8340,2358 8400,2538 8460,2358 8340,2358"
	stroke="#000000" stroke-width="8px" stroke-miterlimit="8" fill="#000000"/>
<!-- Line -->
<defs>
<clipPath id="cp8">
	<path clip-rule="evenodd" d="M 599,-301 H 12601 V 9451 H 599 z
		M 6192,3135 6192,3015 5990,3065 5990,3086z"/>
</clipPath>
</defs>
<polyline points=" 7200,3075 6000,3075" clip-path="url(#cp8)"
	stroke="#000000" stroke-width="15px"/>
<!-- Forward arrow to point 6000,3075 -->
<polygon points=" 6192,3015 6012,3075 6192,3135 6192,3015"
	stroke="#000000" stroke-width="8px" stroke-miterlimit="8" fill="#000000"/>
<!-- Line -->
<defs>
<clipPath id="cp9">
	<path clip-rule="evenodd" d="M 599,-301 H 12601 V 9451 H 599 z
		M 3118,2563 3190,2467 2998,2385 2985,2402z"/>
</clipPath>
</defs>
<polyline points=" 3600,2850 3000,2400" clip-path="url(#cp9)"
	stroke="#000000" stroke-width="15px"/>
<!-- Forward arrow to point 3000,2400 -->
<polygon points=" 3190,2467 3010,2407 3118,2563 3190,2467"
	stroke="#000000" stroke-width="8px" stroke-miterlimit="8" fill="#000000"/>
<!-- Line -->
<defs>
<clipPath id="cp10">
	<path clip-rule="evenodd" d="M 599,-301 H 12601 V 9451 H 599 z
		M 3190,3683 3118,3587 2985,3748 2998,3765z"/>
</clipPath>
</defs>
<polyline points=" 3600,3300 3000,3750" clip-path="url(#cp10)"
	stroke="#000000" stroke-width="15px"/>
<!-- Forward arrow to point 3000,3750 -->
<polygon points=" 3118,3587 3010,3743 3190,3683 3118,3587"
	stroke="#000000" stroke-width="8px" stroke-miterlimit="8" fill="#000000"/>
<!-- Line -->
<defs>
<clipPath id="cp11">
	<path clip-rule="evenodd" d="M 599,-301 H 12601 V 9451 H 599 z
		M 10008,765 10008,885 10211,836 10211,815z"/>
</clipPath>
</defs>
<polyline points=" 9600,825 10200,825" clip-path="url(#cp11)"
	stroke="#000000" stroke-width="15px"/>
<!-- Forward arrow to point 10200,825 -->
<polygon points=" 10008,885 10188,825 10008,765 10008,885"
	stroke="#000000" stroke-width="8px" stroke-miterlimit="8" fill="#000000"/>
<!-- Text -->
<text xml:space="preserve" x="4800" y="6000" fill="#000000" font-family="sans-serif" font-style="normal" font-weight="bold" font-size="228" text-anchor="middle">libLoam/c</text>
<!-- Text -->
<text xml:space="preserve" x="8400" y="6000" fill="#000000" font-family="sans-serif" font-style="normal" font-weight="bold" font-size="228" text-anchor="middle">libPlasma/c</text>
<!-- Text -->
<text xml:space="preserve" x="11100" y="6675" fill="#000000" font-family="sans-serif" font-style="normal" font-weight="bold" font-size="228" text-anchor="middle">libYaml</text>
<!-- Text -->
<text xml:space="preserve" x="3450" y="8175" fill="#000000" font-family="sans-serif" font-style="normal" font-weight="bold" font-size="204" text-anchor="start">dependency</text>
<!-- Text -->
<text xml:space="preserve" x="3450" y="9075" fill="#000000" font-family="sans-serif" font-style="normal" font-weight="bold" font-size="204" text-anchor="start">optional dependency</text>
<!-- Text -->
<text xml:space="preserve" x="7650" y="8625" fill="#000000" font-family="sans-serif" font-style="normal" font-weight="bold" font-size="228" text-anchor="middle">Plasma library</text>
<!-- Text -->
<text xml:space="preserve" x="10350" y="8475" fill="#000000" font-family="sans-serif" font-style="normal" font-weight="bold" font-size="204" text-anchor="middle">external</text>
<!-- Text -->
<text xml:space="preserve" x="10350" y="8775" fill="#000000" font-family="sans-serif" font-style="normal" font-weight="bold" font-size="204" text-anchor="middle">library</text>
<!-- Text -->
<text xml:space="preserve" x="4800" y="3150" fill="#000000" font-family="sans-serif" font-style="normal" font-weight="bold" font-size="228" text-anchor="middle">libLoam/c++</text>
<!-- Text -->
<text xml:space="preserve" x="8400" y="900" fill="#000000" font-family="sans-serif" font-style="normal" font-weight="bold" font-size="204" text-anchor="middle">libPlasma/zeroconf</text>
<!-- Text -->
<text xml:space="preserve" x="2100" y="2475" fill="#000000" font-family="sans-serif" font-style="normal" font-weight="bold" font-size="228" text-anchor="middle">ICU</text>
<!-- Text -->
<text xml:space="preserve" x="2100" y="3825" fill="#000000" font-family="sans-serif" font-style="normal" font-weight="bold" font-size="228" text-anchor="middle">Boost</text>
<!-- Text -->
<text xml:space="preserve" x="11100" y="900" fill="#000000" font-family="sans-serif" font-style="normal" font-weight="bold" font-size="228" text-anchor="middle">Avahi</text>
<!-- Text -->
<text xml:space="preserve" x="8400" y="3150" fill="#000000" font-family="sans-serif" font-style="normal" font-weight="bold" font-size="228" text-anchor="middle">libPlasma/c++</text>
<!-- Text -->
<text xml:space="preserve" x="11100" y="5325" fill="#000000" font-family="sans-serif" font-style="normal" font-weight="bold" font-size="228" text-anchor="middle">OpenSSL</text>
<!-- Text -->
<text xml:space="preserve" x="12150" y="4350" fill="#0000ff" font-family="sans-serif" font-style="normal" font-weight="bold" font-size="180" text-anchor="end">BUILD_CXX_LIBS</text>
<!-- Line -->
<!--  Blue dashed box around C++ libraries.  -->
<rect x="900" y="0" width="11400" height="4500"
	stroke="#0000ff" stroke-width="15px" stroke-dasharray="40 40"/>
</g>
</svg>
